<svg xmlns="http://www.w3.org/2000/svg" width="200" height="220" viewBox="0 0 200 220"><path d="M101 .9l96 54.8v109.6l-96 54.8-96-54.8V55.7L101 .9z"/><path fill="#fff" d="M46.8 149.4a1.7 1.7 0 0 1-1.8-1.8v-22H20.9a1.9 1.9 0 0 1 0-3.7h13.7v-11.8a1.7 1.7 0 0 1 1.8-1.8h7.1A57.8 57.8 0 0 1 99.2 64a.8.8 0 0 1 .7 0 57.6 57.6 0 0 1 55.4 44.3h7.1a1.7 1.7 0 0 1 1.8 1.8v11.8h13.7a1.9 1.9 0 0 1 0 3.7h-24.1v22a1.7 1.7 0 0 1-1.8 1.8zm-8.6-37.5v10h122.4v-10zm57.6-44C72.5 69.3 53 86.3 47.3 108.3h19.5zm-47.2 57.7v20.2h49v-20.2zm49-54.1l-26.2 36.8h26.2zm3.6-3.8v40.6h50.3a54.2 54.2 0 0 0-50.3-40.6zm0 57.9v20.2h8.2v-20.2zm11.9 0v20.2h37.1v-20.2z"/></svg>