<svg id="Layer_1" data-name="Layer 1" xmlns="http://www.w3.org/2000/svg" width="200" height="220" viewBox="0 0 200 220"><title>mecha-stilts</title><polygon points="101 0.9 197 55.7 197 165.3 101 220.1 5 165.3 5 55.7 101 0.9"/><path d="M46.8,149.4a1.7,1.7,0,0,1-1.8-1.8v-22H20.9a1.9,1.9,0,0,1,0-3.7H34.6V110.1a1.7,1.7,0,0,1,1.8-1.8h7.1A57.8,57.8,0,0,1,99.2,64a.8.8,0,0,1,.7,0,57.6,57.6,0,0,1,55.4,44.3h7.1a1.7,1.7,0,0,1,1.8,1.8v11.8h13.7a1.9,1.9,0,0,1,0,3.7H153.8v22a1.7,1.7,0,0,1-1.8,1.8Zm-8.6-37.5v10H160.6v-10Zm57.6-44C72.5,69.3,53,86.3,47.3,108.3H66.8ZM48.6,125.6v20.2h49V125.6Zm49-54.1L71.4,108.3H97.6Zm3.6-3.8v40.6h50.3A54.2,54.2,0,0,0,101.2,67.7Zm0,57.9v20.2h8.2V125.6Zm11.9,0v20.2h37.1V125.6Z" fill="#fff"/></svg>