<svg xmlns="http://www.w3.org/2000/svg" id="Layer_1" width="200" height="220" viewBox="0 0 200 220"><path fill="#fff" d="M101 .9L5 55.7v109.6l96 54.8 96-54.8V55.7zm76.9 124.7h-24.1v22a1.7 1.7 0 0 1-1.8 1.8H46.8a1.7 1.7 0 0 1-1.8-1.8v-22H20.9a1.9 1.9 0 0 1 0-3.7h13.7v-11.8a1.7 1.7 0 0 1 1.8-1.8h7.1A57.8 57.8 0 0 1 99.2 64a1.1 1.1 0 0 1 .8 0c26.9.2 49.3 19.2 55.3 44.3h7.1a1.7 1.7 0 0 1 1.8 1.8v11.8h13.7a1.9 1.9 0 0 1 0 3.7z"/><path fill="#fff" d="M113 125.6h37.1v20.21H113zm-11.8 0h8.2v20.21h-8.2zm-52.6 0h49v20.21h-49zm-10.4-13.7h122.3v10.01H38.2zm113.3-3.6h-50.3V67.7a54.2 54.2 0 0 1 50.3 40.6zM97.6 71.5v36.8H71.4l26.2-36.8zm-1.8-3.6l-29 40.4H47.3c5.7-22 25.2-39 48.5-40.4z"/></svg>