<svg xmlns="http://www.w3.org/2000/svg" width="200" height="220" viewBox="0 0 200 220"><path d="M100.5.9l96 54.8v109.6l-96 54.8-96-54.8V55.7l96-54.8z"/><path fill="#fff" d="M48.9 153.3l-3.8-5.8a2.2 2.2 0 0 1 .1-2.1l13.7-17.3h-6.7a1.7 1.7 0 0 1-1.7-1.8v-12.6a1.7 1.7 0 0 1 1.7-1.8h9.5a54.8 54.8 0 0 1-1.8-13.4c0-22.7 17.5-41.6 39.1-41.6s38.8 18.9 38.8 41.6a46.6 46.6 0 0 1-1.8 13.4h9.6a1.6 1.6 0 0 1 1.6 1.8v12.6a1.6 1.6 0 0 1-1.6 1.8h-8.4l13.5 17.3a2 2 0 0 1 0 2.1l-3.8 5.8a1.6 1.6 0 0 1-2.1.5l-8-4.4H58.9l-7.9 4.4a1.6 1.6 0 0 1-2.1-.5zm25-25.2H63l-14.5 18.3 2.3 3.5 27.9-15.6zm-20.1-12.7v9.2h90.1v-9.2zm11.4-3.5h67.4a45.7 45.7 0 0 0 1.9-13.4c0-21-15.9-38.1-35.5-38.1S63.2 77.5 63.2 98.5c0 4.6.3 9.3 2 13.4zM81 137.1l-15.7 8.8h22.5zm-2.8-9L92 145.9h11.9l13.8-17.8zm36.7 9l-6.7 8.8h22.4zm18-9H122l-4.9 6.2 28 15.6 2.3-3.3z"/></svg>