<svg xmlns="http://www.w3.org/2000/svg" id="Layer_1" width="200" height="220" viewBox="0 0 200 220"><path fill="#fff" d="M100.5.9l-96 54.8v109.6l96 54.8 96-54.8V55.7zm50.2 146.6l-3.8 5.8a1.6 1.6 0 0 1-2.1.5l-8-4.4H58.9l-7.9 4.4a1.6 1.6 0 0 1-2.1-.5l-3.8-5.8a2.2 2.2 0 0 1 .1-2.1l13.7-17.3h-6.7a1.7 1.7 0 0 1-1.7-1.8v-12.7a1.6 1.6 0 0 1 1.7-1.7h9.5a54.8 54.8 0 0 1-1.8-13.4c0-22.7 17.5-41.6 39.1-41.6s38.8 18.9 38.8 41.6a46.6 46.6 0 0 1-1.8 13.4h9.6a1.6 1.6 0 0 1 1.6 1.7v12.7a1.6 1.6 0 0 1-1.6 1.8h-8.4l13.5 17.3a2 2 0 0 1 0 2.1z"/><path fill="#fff" d="M130.6 145.9h-22.4l6.7-8.8 15.7 8.8zm16.8.7l-2.3 3.3-28-15.6 4.9-6.2h10.9l14.5 18.5zm-59.6-.7H65.3l15.7-8.8 6.8 8.8zm29.9-17.8l-13.8 17.8H92l-13.8-17.8h39.5zm-39 6.2l-27.8 15.6-2.4-3.5L63 128.1h10.9l4.8 6.2zm-24.9-18.9h90.1v9.16H53.8zm80.7-16.9a45.7 45.7 0 0 1-1.9 13.4H65.2c-1.7-4.1-2-8.8-2-13.4 0-21 16.1-38 35.8-38s35.5 17 35.5 38z"/></svg>