<svg xmlns="http://www.w3.org/2000/svg" id="Layer_1" width="200" height="220" viewBox="0 0 200 220"><path fill="#fff" d="M100 .9L4 55.7v109.6l96 54.8 96-54.8V55.7zm57.2 131.6a1.7 1.7 0 0 1-1.8 1.8h-9.1v11.5h9.1a1.8 1.8 0 1 1 0 3.6H44a1.8 1.8 0 1 1 0-3.6h9.1v-11.5H44a1.7 1.7 0 0 1-1.8-1.8V96.6a1.7 1.7 0 0 1 1.8-1.8h12c.9-25.8 20.2-40 43.7-40s42.8 14.2 43.7 40h12a1.7 1.7 0 0 1 1.8 1.8z"/><path fill="#fff" d="M131 134.3h11.7v11.47H131zm-21.8 0h18.2v11.47h-18.2zm-15.3 0h11.7v11.47H93.9zm-21.9 0h18.2v11.47H72zm-15.3 0h11.7v11.47H56.7zM45.8 98.5v32.2h107.8V98.5zm97.4 23.4H98.8a1.8 1.8 0 1 1 0-3.6h44.4a1.8 1.8 0 1 1 0 3.6zm-3.5-27.1H59.6c.9-23.5 18.8-36.4 40.1-36.4s39.1 12.9 40 36.4z"/></svg>