<svg xmlns="http://www.w3.org/2000/svg" width="200" height="220" viewBox="0 0 200 220"><path d="M100 .9l96 54.8v109.6l-96 54.8-96-54.8V55.7L100 .9z"/><path fill="#fff" d="M44 149.4a1.8 1.8 0 1 1 0-3.6h9.1v-11.5H44a1.7 1.7 0 0 1-1.8-1.8V96.6a1.7 1.7 0 0 1 1.8-1.8h12c.9-25.8 20.2-40 43.7-40s42.8 14.2 43.7 40h12a1.7 1.7 0 0 1 1.8 1.8v35.9a1.7 1.7 0 0 1-1.8 1.8h-9.1v11.5h9.1a1.8 1.8 0 1 1 0 3.6zm1.8-50.9v32.2h107.8V98.5zm10.9 35.8v11.5h11.7v-11.5zm2.9-39.5h80.1c-.9-23.5-18.7-36.4-40-36.4S60.5 71.3 59.6 94.8zM72 134.3v11.5h18.2v-11.5zm21.9 0v11.5h11.6v-11.5zm49.3-12.4H98.8a1.8 1.8 0 1 1 0-3.6h44.4a1.8 1.8 0 1 1 0 3.6zm-34.1 12.4v11.5h18.3v-11.5zm21.9 0v11.5h11.6v-11.5z"/></svg>