<svg id="Layer_1" data-name="Layer 1" xmlns="http://www.w3.org/2000/svg" width="200" height="220" viewBox="0 0 200 220"><title>super-domes</title><polygon points="100 0.9 196 55.7 196 165.3 100 220.1 4 165.3 4 55.7 100 0.9"/><path d="M44,149.4a1.8,1.8,0,1,1,0-3.6h9.1V134.3H44a1.7,1.7,0,0,1-1.8-1.8V96.6A1.7,1.7,0,0,1,44,94.8H56c.9-25.8,20.2-40,43.7-40s42.8,14.2,43.7,40h12a1.7,1.7,0,0,1,1.8,1.8v35.9a1.7,1.7,0,0,1-1.8,1.8h-9.1v11.5h9.1a1.8,1.8,0,1,1,0,3.6Zm1.8-50.9v32.2H153.6V98.5Zm10.9,35.8v11.5H68.4V134.3Zm2.9-39.5h80.1c-.9-23.5-18.7-36.4-40-36.4S60.5,71.3,59.6,94.8ZM72,134.3v11.5H90.2V134.3Zm21.9,0v11.5h11.6V134.3Zm49.3-12.4H98.8a1.8,1.8,0,1,1,0-3.6h44.4a1.8,1.8,0,1,1,0,3.6Zm-34.1,12.4v11.5h18.3V134.3Zm21.9,0v11.5h11.6V134.3Z" fill="#fff"/></svg>