<svg xmlns="http://www.w3.org/2000/svg"><symbol id="mecha-stilts" viewBox="0 0 200 220"><path fill="#fff" d="M101 .9L5 55.7v109.6l96 54.8 96-54.8V55.7zm76.9 124.7h-24.1v22a1.7 1.7 0 0 1-1.8 1.8H46.8a1.7 1.7 0 0 1-1.8-1.8v-22H20.9a1.9 1.9 0 0 1 0-3.7h13.7v-11.8a1.7 1.7 0 0 1 1.8-1.8h7.1A57.8 57.8 0 0 1 99.2 64a1.1 1.1 0 0 1 .8 0c26.9.2 49.3 19.2 55.3 44.3h7.1a1.7 1.7 0 0 1 1.8 1.8v11.8h13.7a1.9 1.9 0 0 1 0 3.7z"/><path fill="#fff" d="M113 125.6h37.1v20.21H113zm-11.8 0h8.2v20.21h-8.2zm-52.6 0h49v20.21h-49zm-10.4-13.7h122.3v10.01H38.2zm113.3-3.6h-50.3V67.7a54.2 54.2 0 0 1 50.3 40.6zM97.6 71.5v36.8H71.4l26.2-36.8zm-1.8-3.6l-29 40.4H47.3c5.7-22 25.2-39 48.5-40.4z"/></symbol><symbol id="mecha-stilts" viewBox="0 0 200 220"><path fill="#fff" d="M101 .9L5 55.7v109.6l96 54.8 96-54.8V55.7zm76.9 124.7h-24.1v22a1.7 1.7 0 0 1-1.8 1.8H46.8a1.7 1.7 0 0 1-1.8-1.8v-22H20.9a1.9 1.9 0 0 1 0-3.7h13.7v-11.8a1.7 1.7 0 0 1 1.8-1.8h7.1A57.8 57.8 0 0 1 99.2 64a1.1 1.1 0 0 1 .8 0c26.9.2 49.3 19.2 55.3 44.3h7.1a1.7 1.7 0 0 1 1.8 1.8v11.8h13.7a1.9 1.9 0 0 1 0 3.7z"/><path fill="#fff" d="M113 125.6h37.1v20.21H113zm-11.8 0h8.2v20.21h-8.2zm-52.6 0h49v20.21h-49zm-10.4-13.7h122.3v10.01H38.2zm113.3-3.6h-50.3V67.7a54.2 54.2 0 0 1 50.3 40.6zM97.6 71.5v36.8H71.4l26.2-36.8zm-1.8-3.6l-29 40.4H47.3c5.7-22 25.2-39 48.5-40.4z"/></symbol><symbol id="space-bubbles" viewBox="0 0 200 220"><path fill="#fff" d="M100.5.9l-96 54.8v109.6l96 54.8 96-54.8V55.7zm50.2 146.6l-3.8 5.8a1.6 1.6 0 0 1-2.1.5l-8-4.4H58.9l-7.9 4.4a1.6 1.6 0 0 1-2.1-.5l-3.8-5.8a2.2 2.2 0 0 1 .1-2.1l13.7-17.3h-6.7a1.7 1.7 0 0 1-1.7-1.8v-12.7a1.6 1.6 0 0 1 1.7-1.7h9.5a54.8 54.8 0 0 1-1.8-13.4c0-22.7 17.5-41.6 39.1-41.6s38.8 18.9 38.8 41.6a46.6 46.6 0 0 1-1.8 13.4h9.6a1.6 1.6 0 0 1 1.6 1.7v12.7a1.6 1.6 0 0 1-1.6 1.8h-8.4l13.5 17.3a2 2 0 0 1 0 2.1z"/><path fill="#fff" d="M130.6 145.9h-22.4l6.7-8.8 15.7 8.8zm16.8.7l-2.3 3.3-28-15.6 4.9-6.2h10.9l14.5 18.5zm-59.6-.7H65.3l15.7-8.8 6.8 8.8zm29.9-17.8l-13.8 17.8H92l-13.8-17.8h39.5zm-39 6.2l-27.8 15.6-2.4-3.5L63 128.1h10.9l4.8 6.2zm-24.9-18.9h90.1v9.16H53.8zm80.7-16.9a45.7 45.7 0 0 1-1.9 13.4H65.2c-1.7-4.1-2-8.8-2-13.4 0-21 16.1-38 35.8-38s35.5 17 35.5 38z"/></symbol><symbol id="super-domes" viewBox="0 0 200 220"><path fill="#fff" d="M100 .9L4 55.7v109.6l96 54.8 96-54.8V55.7zm57.2 131.6a1.7 1.7 0 0 1-1.8 1.8h-9.1v11.5h9.1a1.8 1.8 0 1 1 0 3.6H44a1.8 1.8 0 1 1 0-3.6h9.1v-11.5H44a1.7 1.7 0 0 1-1.8-1.8V96.6a1.7 1.7 0 0 1 1.8-1.8h12c.9-25.8 20.2-40 43.7-40s42.8 14.2 43.7 40h12a1.7 1.7 0 0 1 1.8 1.8z"/><path fill="#fff" d="M131 134.3h11.7v11.47H131zm-21.8 0h18.2v11.47h-18.2zm-15.3 0h11.7v11.47H93.9zm-21.9 0h18.2v11.47H72zm-15.3 0h11.7v11.47H56.7zM45.8 98.5v32.2h107.8V98.5zm97.4 23.4H98.8a1.8 1.8 0 1 1 0-3.6h44.4a1.8 1.8 0 1 1 0 3.6zm-3.5-27.1H59.6c.9-23.5 18.8-36.4 40.1-36.4s39.1 12.9 40 36.4z"/></symbol></svg>